<mxfile host="app.diagrams.net" modified="2021-04-22T09:35:35.535Z" agent="5.0 (X11; Linux x86_64) AppleWebKit/537.36 (KHTML, like Gecko) Chrome/83.0.4103.61 Safari/537.36" etag="T9VM4JTLXklScHe0YATS" version="14.6.5" type="github">
  <diagram id="FcmZ3jcWBM6JMm5ncafx" name="Page-1">
    <mxGraphModel dx="1422" dy="801" grid="1" gridSize="10" guides="1" tooltips="1" connect="1" arrows="1" fold="1" page="1" pageScale="1" pageWidth="850" pageHeight="1100" math="0" shadow="0">
      <root>
        <mxCell id="0" />
        <mxCell id="1" parent="0" />
        <mxCell id="7gbYlcBj-hea9VFhCcW4-5" style="edgeStyle=orthogonalEdgeStyle;rounded=0;orthogonalLoop=1;jettySize=auto;html=1;exitX=0.25;exitY=1;exitDx=0;exitDy=0;" edge="1" parent="1" source="7gbYlcBj-hea9VFhCcW4-1" target="7gbYlcBj-hea9VFhCcW4-2">
          <mxGeometry relative="1" as="geometry" />
        </mxCell>
        <mxCell id="7gbYlcBj-hea9VFhCcW4-6" style="edgeStyle=orthogonalEdgeStyle;rounded=0;orthogonalLoop=1;jettySize=auto;html=1;exitX=0.5;exitY=1;exitDx=0;exitDy=0;entryX=0.442;entryY=0.033;entryDx=0;entryDy=0;entryPerimeter=0;" edge="1" parent="1" source="7gbYlcBj-hea9VFhCcW4-1" target="7gbYlcBj-hea9VFhCcW4-3">
          <mxGeometry relative="1" as="geometry" />
        </mxCell>
        <mxCell id="7gbYlcBj-hea9VFhCcW4-18" style="edgeStyle=orthogonalEdgeStyle;rounded=0;orthogonalLoop=1;jettySize=auto;html=1;exitX=0.75;exitY=1;exitDx=0;exitDy=0;" edge="1" parent="1" source="7gbYlcBj-hea9VFhCcW4-1" target="7gbYlcBj-hea9VFhCcW4-17">
          <mxGeometry relative="1" as="geometry" />
        </mxCell>
        <mxCell id="7gbYlcBj-hea9VFhCcW4-1" value="统一支付平台" style="rounded=0;whiteSpace=wrap;html=1;" vertex="1" parent="1">
          <mxGeometry x="130" y="440" width="600" height="160" as="geometry" />
        </mxCell>
        <mxCell id="7gbYlcBj-hea9VFhCcW4-2" value="微信" style="rounded=0;whiteSpace=wrap;html=1;" vertex="1" parent="1">
          <mxGeometry x="140" y="660" width="120" height="60" as="geometry" />
        </mxCell>
        <mxCell id="7gbYlcBj-hea9VFhCcW4-3" value="支付宝" style="rounded=0;whiteSpace=wrap;html=1;" vertex="1" parent="1">
          <mxGeometry x="350" y="660" width="120" height="60" as="geometry" />
        </mxCell>
        <mxCell id="7gbYlcBj-hea9VFhCcW4-9" style="edgeStyle=orthogonalEdgeStyle;rounded=0;orthogonalLoop=1;jettySize=auto;html=1;exitX=0.5;exitY=1;exitDx=0;exitDy=0;" edge="1" parent="1" source="7gbYlcBj-hea9VFhCcW4-8" target="7gbYlcBj-hea9VFhCcW4-1">
          <mxGeometry relative="1" as="geometry" />
        </mxCell>
        <mxCell id="7gbYlcBj-hea9VFhCcW4-8" value="麒麟支付" style="rounded=0;whiteSpace=wrap;html=1;" vertex="1" parent="1">
          <mxGeometry x="120" y="280" width="250" height="100" as="geometry" />
        </mxCell>
        <mxCell id="7gbYlcBj-hea9VFhCcW4-11" style="edgeStyle=orthogonalEdgeStyle;rounded=0;orthogonalLoop=1;jettySize=auto;html=1;" edge="1" parent="1" source="7gbYlcBj-hea9VFhCcW4-10">
          <mxGeometry relative="1" as="geometry">
            <mxPoint x="430" y="440" as="targetPoint" />
          </mxGeometry>
        </mxCell>
        <mxCell id="7gbYlcBj-hea9VFhCcW4-10" value="ＴＶＢＣ" style="rounded=0;whiteSpace=wrap;html=1;" vertex="1" parent="1">
          <mxGeometry x="390" y="280" width="140" height="100" as="geometry" />
        </mxCell>
        <mxCell id="7gbYlcBj-hea9VFhCcW4-13" style="edgeStyle=orthogonalEdgeStyle;rounded=0;orthogonalLoop=1;jettySize=auto;html=1;" edge="1" parent="1" source="7gbYlcBj-hea9VFhCcW4-12" target="7gbYlcBj-hea9VFhCcW4-1">
          <mxGeometry relative="1" as="geometry" />
        </mxCell>
        <mxCell id="7gbYlcBj-hea9VFhCcW4-12" value="梨园行" style="rounded=0;whiteSpace=wrap;html=1;" vertex="1" parent="1">
          <mxGeometry x="540" y="280" width="140" height="100" as="geometry" />
        </mxCell>
        <mxCell id="7gbYlcBj-hea9VFhCcW4-15" style="edgeStyle=orthogonalEdgeStyle;rounded=0;orthogonalLoop=1;jettySize=auto;html=1;entryX=0.5;entryY=0;entryDx=0;entryDy=0;" edge="1" parent="1" source="7gbYlcBj-hea9VFhCcW4-14" target="7gbYlcBj-hea9VFhCcW4-8">
          <mxGeometry relative="1" as="geometry" />
        </mxCell>
        <mxCell id="7gbYlcBj-hea9VFhCcW4-14" value="华为" style="rounded=0;whiteSpace=wrap;html=1;" vertex="1" parent="1">
          <mxGeometry x="110" y="160" width="120" height="80" as="geometry" />
        </mxCell>
        <mxCell id="7gbYlcBj-hea9VFhCcW4-19" style="edgeStyle=orthogonalEdgeStyle;rounded=0;orthogonalLoop=1;jettySize=auto;html=1;entryX=0.5;entryY=0;entryDx=0;entryDy=0;" edge="1" parent="1" source="7gbYlcBj-hea9VFhCcW4-16" target="7gbYlcBj-hea9VFhCcW4-8">
          <mxGeometry relative="1" as="geometry" />
        </mxCell>
        <mxCell id="7gbYlcBj-hea9VFhCcW4-16" value="风行" style="rounded=0;whiteSpace=wrap;html=1;" vertex="1" parent="1">
          <mxGeometry x="250" y="160" width="100" height="80" as="geometry" />
        </mxCell>
        <mxCell id="7gbYlcBj-hea9VFhCcW4-17" value="银联" style="rounded=0;whiteSpace=wrap;html=1;" vertex="1" parent="1">
          <mxGeometry x="550" y="660" width="120" height="60" as="geometry" />
        </mxCell>
      </root>
    </mxGraphModel>
  </diagram>
</mxfile>
